<svg width="20" height="20" viewBox="0 0 20 20" fill="none" xmlns="http://www.w3.org/2000/svg">
<path d="M10 0.0893555C4.475 0.0893555 1.45954e-06 4.56436 1.45954e-06 10.0894C-0.00113276 12.1886 0.658815 14.235 1.88622 15.938C3.11362 17.6411 4.84615 18.9144 6.838 19.5774C7.338 19.6644 7.525 19.3644 7.525 19.1014C7.525 18.8644 7.512 18.0774 7.512 17.2394C5 17.7024 4.35 16.6274 4.15 16.0644C4.037 15.7764 3.55 14.8894 3.125 14.6514C2.775 14.4644 2.275 14.0014 3.112 13.9894C3.9 13.9764 4.462 14.7144 4.65 15.0144C5.55 16.5264 6.988 16.1014 7.562 15.8394C7.65 15.1894 7.912 14.7524 8.2 14.5024C5.975 14.2524 3.65 13.3894 3.65 9.56436C3.65 8.47636 4.037 7.57736 4.675 6.87636C4.575 6.62636 4.225 5.60136 4.775 4.22636C4.775 4.22636 5.612 3.96436 7.525 5.25236C8.33906 5.02642 9.18017 4.9127 10.025 4.91436C10.875 4.91436 11.725 5.02636 12.525 5.25136C14.437 3.95136 15.275 4.22736 15.275 4.22736C15.825 5.60236 15.475 6.62736 15.375 6.87736C16.012 7.57736 16.4 8.46436 16.4 9.56436C16.4 13.4024 14.063 14.2524 11.838 14.5024C12.2 14.8144 12.513 15.4144 12.513 16.3524C12.513 17.6894 12.5 18.7644 12.5 19.1024C12.5 19.3644 12.688 19.6764 13.188 19.5764C15.173 18.9062 16.8979 17.6304 18.1199 15.9285C19.3419 14.2267 19.9994 12.1845 20 10.0894C20 4.56436 15.525 0.0893555 10 0.0893555Z" fill="#E5E5E5"/>
</svg>
