<svg width="16" height="13" viewBox="0 0 16 13" fill="none" xmlns="http://www.w3.org/2000/svg">
<path d="M15.2863 3.61111V12.2778C15.2863 12.4693 15.2102 12.653 15.0748 12.7885C14.9393 12.9239 14.7556 13 14.5641 13H1.56408C1.37253 13 1.18883 12.9239 1.05339 12.7885C0.917949 12.653 0.841858 12.4693 0.841858 12.2778V2.88889H14.5641C14.7556 2.88889 14.9393 2.96498 15.0748 3.10042C15.2102 3.23587 15.2863 3.41957 15.2863 3.61111ZM8.36308 1.44444H0.841858V0.722222C0.841858 0.530677 0.917949 0.346977 1.05339 0.211534C1.18883 0.076091 1.37253 0 1.56408 0H6.91864L8.36308 1.44444Z" fill="#43D9AD"/>
</svg>
