<svg width="17" height="15" viewBox="0 0 17 15" fill="none" xmlns="http://www.w3.org/2000/svg">
<path d="M0.811096 0.200134H15.4108C15.6259 0.200134 15.8322 0.285589 15.9844 0.437699C16.1365 0.589809 16.2219 0.796114 16.2219 1.01123V13.9888C16.2219 14.2039 16.1365 14.4102 15.9844 14.5623C15.8322 14.7144 15.6259 14.7999 15.4108 14.7999H0.811096C0.59598 14.7999 0.389675 14.7144 0.237565 14.5623C0.0854545 14.4102 0 14.2039 0 13.9888V1.01123C0 0.796114 0.0854545 0.589809 0.237565 0.437699C0.389675 0.285589 0.59598 0.200134 0.811096 0.200134ZM8.15963 7.24288L2.95888 2.82646L1.90851 4.06257L8.17017 9.37931L14.3191 4.05852L13.2582 2.83133L8.16044 7.24288H8.15963Z" fill="#E0E0E0"/>
</svg>
