<svg width="21" height="18" viewBox="0 0 21 18" fill="none" xmlns="http://www.w3.org/2000/svg">
<path d="M20.3832 2.74528C19.6197 3.08298 18.8101 3.30476 17.9812 3.40328C18.8549 2.88072 19.5089 2.0583 19.8212 1.08928C19.0012 1.57728 18.1022 1.91928 17.1652 2.10428C16.5358 1.43086 15.7015 0.984245 14.7921 0.833867C13.8827 0.683488 12.9491 0.837773 12.1364 1.27274C11.3238 1.7077 10.6776 2.39897 10.2983 3.23907C9.91902 4.07918 9.82793 5.02106 10.0392 5.91828C8.37629 5.83494 6.74952 5.40281 5.26447 4.64995C3.77943 3.89709 2.46931 2.84033 1.41918 1.54828C1.04747 2.18673 0.852138 2.91251 0.853183 3.65128C0.853183 5.10128 1.59118 6.38228 2.71318 7.13228C2.04919 7.11138 1.39982 6.93206 0.819183 6.60928V6.66128C0.819384 7.62698 1.15355 8.5629 1.76503 9.31034C2.37651 10.0578 3.22766 10.5708 4.17418 10.7623C3.5578 10.9293 2.91149 10.9539 2.28418 10.8343C2.55105 11.6655 3.07119 12.3925 3.77178 12.9134C4.47236 13.4343 5.31831 13.7231 6.19118 13.7393C5.32366 14.4206 4.33036 14.9243 3.26806 15.2215C2.20577 15.5186 1.09531 15.6035 0.000183105 15.4713C1.91188 16.7007 4.13728 17.3534 6.41018 17.3513C14.1032 17.3513 18.3102 10.9783 18.3102 5.45128C18.3102 5.27128 18.3052 5.08928 18.2972 4.91128C19.116 4.31945 19.8228 3.5863 20.3842 2.74628L20.3832 2.74528Z" fill="#E5E5E5"/>
</svg>
